<svg width="15" height="23" viewBox="0 0 15 23" fill="none" xmlns="http://www.w3.org/2000/svg">
<path opacity="0.25" d="M12.2188 0C13.4096 0 14.375 0.965382 14.375 2.15625V20.8438C14.375 22.0346 13.4096 23 12.2188 23H2.15625C0.965382 23 0 22.0346 0 20.8438V2.15625C0 0.965382 0.965382 0 2.15625 0H12.2188ZM8.625 17.25H5.75C5.35305 17.25 5.03125 17.5719 5.03125 17.9688C5.03125 18.3656 5.35305 18.6875 5.75 18.6875H8.625C9.02189 18.6875 9.34375 18.3656 9.34375 17.9688C9.34375 17.5719 9.02189 17.25 8.625 17.25Z" fill="#B30205"/>
</svg>
