<svg width="18" height="23" viewBox="0 0 18 23" fill="none" xmlns="http://www.w3.org/2000/svg">
<path opacity="0.25" d="M14.625 11.5C16.489 11.5 18 13.0446 18 14.95C18 17.517 16.9673 19.5736 15.2727 20.964C13.6048 22.3325 11.3694 23 9 23C6.63057 23 4.3952 22.3325 2.72734 20.964C1.03268 19.5736 0 17.517 0 14.95C0 13.1568 1.33847 11.683 3.04992 11.5158L3.37495 11.5H14.625ZM9 0C11.4853 0 13.5 2.05949 13.5 4.6C13.5 7.14051 11.4853 9.2 9 9.2C6.51472 9.2 4.5 7.14051 4.5 4.6C4.5 2.05949 6.51472 0 9 0Z" fill="#B30205"/>
</svg>
