<svg width="91" height="91" viewBox="0 0 91 91" fill="none" xmlns="http://www.w3.org/2000/svg">
<path d="M52.4039 77.6807L4.27087 49.9526V47.7344L52.4039 75.4624V77.6807Z" fill="#1B1B1B"/>
<path d="M10.5835 52.4422L11.5742 53.0148L9.66531 54.0155L8.68066 53.4488L10.5835 52.4422Z" fill="#602929"/>
<path d="M14.4736 54.3349L10.1605 57.2102V51.6826L14.4736 48.8074V54.3349Z" fill="#1A1A1A"/>
<path d="M9.66528 56.9209L10.1606 57.2102V51.6827L9.66528 51.3934V56.9209Z" fill="#292929"/>
<path d="M14.2985 54.0637L11.6043 56.4447L11.3385 58.8015L13.4286 57.596L13.6944 55.2391L16.3886 52.8581L14.2985 54.0637Z" fill="#292929"/>
<path d="M51.7274 80.0255L54.6874 78.0002L62.9935 83.4071L61.6766 75.4263L52.7785 73.2201L51.7274 80.0255Z" fill="#222222"/>
<path d="M64.4493 85.2818C64.4493 82.6175 62.5645 79.3685 60.2328 78.0243C59.073 77.3552 58.0219 77.2889 57.2607 77.7168C57.2607 77.7168 57.2486 77.7229 57.2426 77.7289L54.5786 79.266V81.3215L60.559 89.5133L63.0538 88.0666C63.1747 88.0124 63.2834 87.9461 63.3861 87.8737C64.0445 87.4036 64.4432 86.5115 64.4432 85.2878L64.4493 85.2818Z" fill="url(#paint0_linear_243_5966)"/>
<path d="M53.4127 81.9243C53.4127 84.5886 55.2974 87.8376 57.6292 89.1818C59.9549 90.526 61.8457 89.447 61.8457 86.7827C61.8457 84.1184 59.9609 80.8694 57.6292 79.5252C55.3035 78.187 53.4127 79.26 53.4127 81.9243Z" fill="url(#paint1_linear_243_5966)"/>
<path d="M61.61 86.7103C61.61 89.2722 59.7918 90.3089 57.5567 89.019C55.3155 87.729 53.5033 84.6066 53.5033 82.0387C53.5033 79.4709 55.3216 78.4401 57.5567 79.7301C59.7978 81.02 61.61 84.1425 61.61 86.7103Z" fill="url(#paint2_linear_243_5966)"/>
<path d="M55.1826 82.943C55.1826 84.4921 56.276 86.3728 57.6291 87.1504C58.9823 87.928 60.0757 87.3071 60.0757 85.758C60.0757 84.2088 58.9823 82.3281 57.6291 81.5506C56.276 80.773 55.1826 81.3938 55.1826 82.943Z" fill="#CBCAE8"/>
<path d="M55.5331 83.1479C55.5331 84.4741 56.4694 86.0895 57.6292 86.7526C58.783 87.4217 59.7254 86.8852 59.7254 85.5591C59.7254 84.2329 58.7891 82.6175 57.6292 81.9544C56.4754 81.2853 55.5331 81.8218 55.5331 83.1479Z" fill="#93949C"/>
<path d="M56.3668 84.2691C56.5057 84.6911 56.6326 84.9141 56.9225 85.2577C57.0252 85.3783 57.0917 85.547 57.0615 85.6495C57.0313 85.752 56.8802 85.7218 56.7413 85.5591C56.4393 85.2155 56.1372 84.679 56.0043 84.2511C55.9379 84.0521 55.9922 83.9135 56.101 83.9436C56.2097 83.9738 56.3184 84.1184 56.3728 84.2691H56.3668Z" fill="#504F58"/>
<path d="M58.8918 84.2269C58.7529 83.805 58.626 83.582 58.3361 83.2384C58.2334 83.1178 58.1669 82.949 58.1971 82.8466C58.2274 82.7441 58.3784 82.7742 58.5173 82.937C58.8194 83.2806 59.1214 83.817 59.2603 84.245C59.3268 84.4439 59.2724 84.5826 59.1637 84.5524C59.0549 84.5223 58.9462 84.3776 58.8918 84.2269Z" fill="#504F58"/>
<path d="M58.2816 86.0714C58.5836 86.0835 58.7105 86.0172 58.8615 85.77C58.9159 85.6796 59.0306 85.6736 59.1394 85.77C59.2481 85.8665 59.2964 86.0714 59.2239 86.186C59.079 86.4512 58.7648 86.6139 58.4507 86.5898C58.3118 86.5898 58.1608 86.4331 58.1305 86.2945C58.1003 86.1558 58.1728 86.0654 58.2816 86.0714Z" fill="#504F58"/>
<path d="M58.632 86.5356C58.493 86.5356 58.342 86.3788 58.3118 86.2402C58.2997 86.1679 58.3118 86.1136 58.336 86.0714C58.3178 86.0714 58.2997 86.0714 58.2816 86.0714C58.1728 86.0714 58.1064 86.1558 58.1306 86.2944C58.1608 86.4331 58.3058 86.5838 58.4507 86.5898C58.5836 86.6019 58.7165 86.5717 58.8373 86.5235C58.7709 86.5356 58.6984 86.5416 58.632 86.5356Z" fill="#9C9AAB"/>
<path d="M59.0487 85.7097C58.9762 85.6796 58.9037 85.7097 58.8674 85.77C58.7949 85.8905 58.7285 85.9629 58.6439 86.0111C58.8251 85.987 58.9278 85.9086 59.0487 85.7157V85.7097Z" fill="#9C9AAB"/>
<path d="M56.9707 82.4246C56.6687 82.4126 56.5418 82.4789 56.3908 82.726C56.3364 82.8164 56.2217 82.8225 56.1129 82.726C56.0042 82.6296 55.9559 82.4246 56.0284 82.3101C56.1733 82.0449 56.4875 81.8821 56.8016 81.9062C56.9405 81.9062 57.0915 82.0629 57.1217 82.2016C57.152 82.3402 57.0795 82.4306 56.9707 82.4246Z" fill="#504F58"/>
<path d="M56.8379 85.4265C56.5358 85.0829 56.2338 84.5465 56.0948 84.1185C56.0707 84.0522 56.0707 83.9979 56.0707 83.9497C55.9801 83.9497 55.9317 84.0703 55.9921 84.2571C56.125 84.6851 56.4271 85.2216 56.7352 85.5652C56.8741 85.7279 57.0251 85.7581 57.0553 85.6556C57.0614 85.6315 57.0493 85.6013 57.0493 85.5772C56.9889 85.5652 56.9103 85.523 56.8379 85.4325V85.4265Z" fill="#93949C"/>
<path d="M59.2603 84.4138C59.1515 84.3837 59.0428 84.239 58.9884 84.0883C58.8495 83.6663 58.7226 83.4433 58.4327 83.0997C58.3481 83.0033 58.3058 82.8827 58.2998 82.7863C58.2454 82.7803 58.2092 82.7923 58.191 82.8405C58.1608 82.943 58.2273 83.1118 58.33 83.2323C58.626 83.5759 58.7468 83.7929 58.8857 84.2209C58.9341 84.3716 59.0488 84.5163 59.1576 84.5464C59.2301 84.5645 59.2723 84.5042 59.2784 84.4078C59.2723 84.4078 59.2663 84.4078 59.2603 84.4078V84.4138Z" fill="#93949C"/>
<path d="M56.2157 82.5934C56.113 82.497 56.0647 82.3041 56.1311 82.1835C56.0949 82.2257 56.0586 82.2619 56.0345 82.3101C55.962 82.4247 56.0103 82.6296 56.119 82.726C56.2278 82.8225 56.3425 82.8165 56.3969 82.726C56.4271 82.6778 56.4573 82.6356 56.4875 82.5995C56.4332 82.6778 56.3244 82.6838 56.2217 82.5874L56.2157 82.5934Z" fill="#93949C"/>
<path d="M57.0735 82.286C56.7836 82.2739 56.6567 82.3402 56.5117 82.5693C56.6265 82.4487 56.7533 82.4126 56.9708 82.4246C57.0554 82.4246 57.1037 82.3643 57.1098 82.2739C57.0977 82.2739 57.0856 82.292 57.0735 82.292V82.286Z" fill="#93949C"/>
<path d="M57.744 86.5898C56.6325 85.9508 55.7324 84.3956 55.7324 83.1238C55.7324 82.1111 56.3003 81.5867 57.0916 81.7253C56.1976 81.4842 55.5331 82.0327 55.5331 83.1418C55.5331 84.468 56.4694 86.0774 57.6292 86.7465C58.6078 87.3131 59.4294 87.0117 59.6589 86.1015C59.3932 86.8731 58.638 87.1021 57.744 86.5837V86.5898Z" fill="#9C9AAB"/>
<path d="M56.2761 83.5759C56.2761 84.4319 56.8802 85.4747 57.6293 85.9087C58.3783 86.3427 58.9824 85.9931 58.9824 85.1372C58.9824 84.2812 58.3783 83.2384 57.6293 82.8044C56.8802 82.3704 56.2761 82.72 56.2761 83.5759Z" fill="#CBCAE8"/>
<path d="M56.5056 83.7084C56.5056 84.4197 57.007 85.2877 57.6292 85.6434C58.2514 85.999 58.7528 85.7157 58.7528 85.0044C58.7528 84.2931 58.2514 83.4251 57.6292 83.0695C57.007 82.7139 56.5056 82.9972 56.5056 83.7084Z" fill="#93949C"/>
<path d="M57.7802 85.4626C57.2003 85.1251 56.7291 84.3174 56.7291 83.6543C56.7291 83.2263 56.9285 82.9611 57.2184 82.9189C56.8016 82.8646 56.5056 83.16 56.5056 83.7025C56.5056 84.4138 57.007 85.2818 57.6292 85.6375C58.1185 85.9208 58.5414 85.8002 58.6924 85.3843C58.5112 85.6375 58.1729 85.6857 57.7802 85.4626Z" fill="#9C9AAB"/>
<path d="M83.2543 71.8036V72.1954L89.3132 75.4504V75.0586L83.2543 71.8036Z" fill="#292929"/>
<path d="M89.3132 77.7169L83.2543 74.4619V75.0225L84.2148 76.7103L88.0023 78.6573L89.3132 78.0003V77.7169Z" fill="#292929"/>
<path d="M83.2543 72.1954V74.4618L89.3132 77.7169V75.4504L83.2543 72.1954Z" fill="#222222"/>
<path d="M64.111 83.7025V85.969L69.9645 89.3446V87.0781L64.111 83.7025Z" fill="#222222"/>
<path d="M62.8363 83.5699V83.9557L68.6898 87.3313V86.9455L62.8363 83.5699Z" fill="#292929"/>
<path d="M88.6488 79.6941L90.3825 77.8375L88.4917 79.6941L72.55 88.8805L66.7871 88.8323L67.0408 89.6521L68.6598 90.4176C68.6598 90.4176 71.5171 89.6461 72.2782 89.3447C76.3316 87.7292 83.2362 83.4856 87.0419 81.0142C87.2775 80.8635 88.6488 79.7001 88.6488 79.7001V79.6941Z" fill="#B9B3C0"/>
<path d="M90.2314 78.2473C90.2314 78.2473 89.2467 79.1515 88.9507 79.3866C87.0116 80.9418 77.5517 86.8249 72.1392 89.0733C71.7163 89.2481 70.0612 89.8027 70.0612 89.8027C69.3061 90.08 68.6839 89.9112 68.0496 89.5495L66.781 88.8382V86.5597L87.1325 78.3377L89.0715 76.5897L89.9716 76.873C90.6059 77.2407 90.3401 78.1328 90.2314 78.2413V78.2473Z" fill="#404B4D"/>
<path d="M90.3825 75.354V77.8435C90.3825 77.8435 88.9448 79.2962 88.4917 79.7001C86.1116 81.7978 76.6759 86.9817 72.55 88.8865C71.8553 89.206 69.6686 89.9112 69.6686 89.9112V87.4217L72.55 86.397L88.4917 77.2106L90.3825 75.354Z" fill="#404B4D"/>
<path d="M90.2314 75.9688C90.2314 75.9688 89.2467 76.873 88.9507 77.1081C87.0116 78.6632 77.5517 84.5464 72.1392 86.7948C71.7163 86.9696 70.4236 87.4217 70.4236 87.4217C69.6685 87.699 68.6839 87.6327 68.0496 87.271L66.781 86.5597L67.3126 86.1739L70.3209 85.752L87.1445 76.1677L89.2407 74.1785L89.9777 74.6005C90.6119 74.9682 90.3461 75.8603 90.2374 75.9688H90.2314Z" fill="#535C5E"/>
<path d="M69.4026 87.4036C68.9314 87.4036 68.4723 87.2951 68.1461 87.1083L67.1373 86.5416L67.391 86.3608L70.3873 85.9389L87.2592 76.3245L89.2648 74.4136L89.8749 74.7693C90.0319 74.8597 90.1226 74.9923 90.1648 75.1792C90.2313 75.4685 90.1346 75.7759 90.0863 75.8422C89.9776 75.9447 89.0956 76.7524 88.8298 76.9634C86.9209 78.4945 77.4127 84.3957 72.0666 86.62C71.6558 86.7888 70.3752 87.2409 70.3631 87.2409C70.0732 87.3433 69.7409 87.4036 69.4026 87.4036Z" fill="#535C5E"/>
<path d="M24.2597 62.0686C24.2597 59.4043 22.375 56.1553 20.0432 54.8111C18.8834 54.142 17.8323 54.0757 17.0712 54.5037C17.0712 54.5037 17.0591 54.5097 17.053 54.5158L14.389 56.0529V58.1083L20.3694 66.3002L22.8643 64.8535C22.9851 64.7992 23.0938 64.7329 23.1965 64.6606C23.855 64.1904 24.2537 63.2983 24.2537 62.0747L24.2597 62.0686Z" fill="url(#paint3_linear_243_5966)"/>
<path d="M13.2233 58.7112C13.2233 61.3755 15.108 64.6245 17.4397 65.9687C19.7654 67.3069 21.6562 66.2339 21.6562 63.5696C21.6562 60.9053 19.7715 57.6563 17.4397 56.3121C15.114 54.9739 13.2233 56.0469 13.2233 58.7112Z" fill="url(#paint4_linear_243_5966)"/>
<path d="M21.4206 63.4974C21.4206 66.0592 19.6023 67.096 17.3672 65.806C15.1261 64.5161 13.3138 61.3937 13.3138 58.8258C13.3138 56.2579 15.1321 55.2272 17.3672 56.5171C19.6084 57.8071 21.4206 60.9295 21.4206 63.4974Z" fill="url(#paint5_linear_243_5966)"/>
<path d="M19.8862 62.5509C19.8862 64.1 18.7928 64.7209 17.4397 63.9433C16.0865 63.1657 14.9932 61.279 14.9932 59.7359C14.9932 58.1928 16.0865 57.5659 17.4397 58.3435C18.7928 59.1211 19.8862 61.0078 19.8862 62.5509Z" fill="#CBCAE8"/>
<path d="M19.6385 62.4062C19.6385 63.7987 18.6539 64.3593 17.4397 63.66C16.2255 62.9608 15.2408 61.267 15.2408 59.8745C15.2408 58.4821 16.2255 57.9215 17.4397 58.6208C17.5484 58.6871 17.6632 58.7594 17.7659 58.8378C18.7143 59.543 19.4634 60.833 19.6144 62.0024C19.6325 62.141 19.6385 62.2736 19.6385 62.4062Z" fill="#CBCAE8"/>
<path d="M18.2371 63.0934C17.0893 62.4304 16.153 60.827 16.153 59.5069C16.153 58.9764 16.304 58.5726 16.5638 58.3194C15.7845 58.2591 15.2408 58.8318 15.2408 59.8685C15.2408 61.261 16.2255 62.9548 17.4397 63.654C18.3277 64.1664 19.0888 64.0036 19.4392 63.3406C19.1009 63.4189 18.6841 63.3406 18.2371 63.0874V63.0934Z" fill="#93949C"/>
<g style="mix-blend-mode:multiply">
<path d="M19.5117 62.1591C19.5117 63.015 18.9076 63.3586 18.1646 62.9246C17.4216 62.4966 16.8175 61.4538 16.8175 60.6039C16.8175 59.754 17.4216 59.4043 18.1646 59.8383C18.9076 60.2663 19.5117 61.3091 19.5117 62.1591Z" fill="#91929A"/>
</g>
<path d="M19.6143 62.0023C19.3848 62.3399 18.9438 62.4002 18.4424 62.1108C17.6994 61.6828 17.0953 60.64 17.0953 59.7901C17.0953 59.2175 17.3672 58.8739 17.7719 58.8377C18.7203 59.543 19.4694 60.8329 19.6204 62.0023H19.6143Z" fill="#93949C"/>
<path d="M17.4396 58.9523L16.4308 59.537L18.4242 62.7619L19.421 62.1892L18.7384 60.5677L17.4396 58.9523Z" fill="#93949C"/>
<path d="M18.7927 61.918C18.7927 62.7739 18.1886 63.1175 17.4456 62.6835C16.7026 62.2555 16.0985 61.2127 16.0985 60.3628C16.0985 59.5129 16.7026 59.1633 17.4456 59.5973C18.1886 60.0252 18.7927 61.0681 18.7927 61.918Z" fill="#93949C"/>
<path d="M18.6599 61.8939C18.6599 62.7076 18.08 63.0392 17.3672 62.6293C16.6544 62.2194 16.0745 61.2248 16.0745 60.411C16.0745 59.5973 16.6544 59.2657 17.3672 59.6756C18.08 60.0855 18.6599 61.0801 18.6599 61.8939Z" fill="#CBCAE8"/>
<path d="M72.5922 27.7462V59.7661L71.964 60.1278L49.2687 73.2021L48.1572 73.8411V41.8212L72.5922 27.7462Z" fill="#CFD3D6"/>
<path d="M70.9069 43.2498L71.5109 54.4012V61.3574L80.0466 67.132L82.8314 71.5504L88.6547 74.6668V70.2545L89.138 70.7487L88.9326 67.2225L89.138 66.481L88.999 65.7939L88.6064 64.1784C88.6064 64.1784 87.9902 61.5563 87.2714 59.0608C86.5465 56.5592 84.0335 50.6941 84.0335 50.6941L83.5623 50.1094L71.2149 42.9966L70.9129 43.2498H70.9069Z" fill="#98AC9F"/>
<path d="M71.5109 54.4013V61.3635L80.0405 67.1381L82.8253 71.5565L88.6486 74.6729V70.2666L89.1319 70.7548L88.9265 67.2285L84.0455 64.2026L76.3797 57.2103L71.5109 54.4013Z" fill="#7B9685"/>
<path d="M88.401 74.3775L83.3388 71.6951V71.659C83.3388 71.659 83.1817 71.02 82.2756 69.2177C81.2366 67.1441 79.1767 65.2694 79.1586 65.2514L73.1902 61.7914C72.7976 61.5623 72.4956 61.0379 72.4956 60.5858L71.8915 44.8833C71.8915 44.6784 71.964 44.5216 72.0969 44.4433C72.2298 44.3649 72.4049 44.377 72.5862 44.4855L83.1696 50.5856C83.4234 50.7303 83.659 51.0136 83.7918 51.3331C83.9912 51.8033 84.3416 52.6894 84.9154 54.2325C85.9182 56.9269 88.0144 63.2803 88.0748 63.6178C88.1291 63.9252 88.2681 65.6191 88.2741 65.6914L88.407 74.3896L88.401 74.3775ZM83.4898 71.5866L88.2318 74.0821L88.0989 65.6914C88.0929 65.601 87.954 63.9313 87.9056 63.6419C87.8513 63.3345 85.743 56.939 84.7584 54.2867C84.1905 52.7496 83.8341 51.8635 83.6348 51.3994C83.514 51.1161 83.3086 50.8629 83.0851 50.7363L72.5016 44.6362C72.3747 44.5638 72.266 44.5518 72.1875 44.594C72.1089 44.6362 72.0667 44.7386 72.0667 44.8833L72.6707 60.5858C72.6707 60.9776 72.9426 61.4478 73.2809 61.6407L79.2613 65.1127C79.2975 65.1429 81.3755 67.0416 82.4327 69.1393C83.2361 70.7427 83.4475 71.4239 83.4898 71.5866Z" fill="#6F8B79"/>
<path d="M73.8607 70.1279C73.8607 72.7801 75.7394 76.005 78.053 77.3432C80.3667 78.6754 82.2453 77.6084 82.2453 74.9562C82.2453 72.3039 80.3667 69.079 78.053 67.7409C75.7394 66.4087 73.8607 67.4756 73.8607 70.1279Z" fill="#222222"/>
<path d="M73.3593 57.15L74.3681 57.7347C74.4527 57.7829 74.5252 57.9155 74.5252 58.03V60.4954C74.5252 60.6099 74.4588 60.6642 74.3681 60.6099L73.3593 60.0252C73.2748 59.977 73.2023 59.8444 73.2023 59.7299V57.2645C73.2023 57.15 73.2687 57.0957 73.3593 57.15Z" fill="#0C100F"/>
<path d="M73.3837 58.7534L74.3442 59.3079V60.2663C74.3442 60.3206 74.314 60.3447 74.2717 60.3206L73.4502 59.8504C73.4079 59.8263 73.3777 59.766 73.3777 59.7118V58.7534H73.3837Z" fill="#222222"/>
<path d="M24.435 0L72.5922 27.7461L48.1572 41.8211L0 14.075L24.435 0Z" fill="#EAEAEA"/>
<path d="M48.1572 41.0918L0.634284 13.7134L0 14.075L48.1572 41.8212L72.5922 27.7462L71.964 27.3785L48.1572 41.0918Z" fill="#F2EFEC"/>
<path d="M71.2693 66.9512L72.8459 67.8614L73.6494 66.1495L75.0146 64.9439L79.5089 67.5359C79.5089 67.5359 81.3031 68.6932 82.6683 72.111C83.0428 73.0333 83.4717 75.1491 83.4717 75.1491L83.7919 75.0888C83.7919 75.0888 83.8704 74.064 83.3388 72.0688C82.8012 70.0736 80.7956 67.2647 79.3519 66.0651C77.9081 64.8656 71.5109 61.3634 71.5109 61.3634L71.2693 64.6486V66.9512Z" fill="#292929"/>
<path d="M89.283 74.0037L84.7585 77.97L72.9729 84.7573L68.0194 86.5597V81.87L89.3132 71.4539L89.283 74.0037Z" fill="#CFD3D6"/>
<path d="M89.289 73.853V74.2569L87.8936 75.6614L86.1901 77.0839L84.7584 77.97L86.7881 74.5703L89.289 73.853Z" fill="#CFD3D6"/>
<path d="M51.691 54.3229L51.0869 66.1736V73.1297L59.6226 78.9044L62.4074 83.3228L68.0253 86.5598V82.1474L68.8771 82.4247V78.157L68.3696 77.6807L68.1824 75.9508C68.1824 75.9508 67.4393 73.3648 66.8473 70.8331C66.2553 68.2894 64.8478 61.7612 64.8176 61.7733L64.3465 61.1886L51.9991 54.0757L51.697 54.3289L51.691 54.3229Z" fill="#B30205"/>
<path opacity="0.5" d="M51.0869 66.1676V73.1237L59.6226 78.8984L62.4013 83.3228L68.0193 86.5598L68.6898 86.168L68.871 85.2276V78.7839L63.6216 75.9689L55.9558 68.9766L51.0869 66.1676Z" fill="#AFB4B8"/>
<path d="M67.8078 86.3428L67.9649 85.7159V82.3765V78.3137L67.9105 77.6506L64.5821 62.1169L64.0021 61.3634L51.7574 54.2626L51.987 54.0637L64.3465 61.1826L64.8056 61.7673L68.3092 76.9333L68.6777 77.5361L68.3696 77.6808L68.871 78.157V86.0715L68.1945 86.4573H68.0193L67.8078 86.3428Z" fill="#BEC3C7"/>
<path d="M68.0193 86.5598L62.4014 83.3228V83.2203L68.0193 86.4573V86.5598Z" fill="#292929"/>
<path d="M55.7263 57.6383L63.4766 62.1049C63.7908 62.2857 64.0082 62.5931 64.0807 62.9428C64.3284 64.1483 64.9325 67.108 65.4761 69.5251C66.1648 72.5813 66.3098 73.9496 66.3098 73.9496V76.2221C66.3098 76.4451 66.1527 76.5295 65.9594 76.421L64.129 75.3661C63.7787 75.1672 58.6259 68.8561 57.9312 68.4582L55.1101 66.8367C54.9168 66.7282 54.7598 66.457 54.7598 66.24L55.3638 57.8372C55.3638 57.6202 55.5209 57.5298 55.7142 57.6383H55.7263Z" fill="#1E1E1E"/>
<path d="M64.274 75.143C64.123 75.0285 63.09 73.8229 62.0932 72.6596C60.0031 70.2183 58.4929 68.4702 58.0761 68.2351L55.2551 66.6136C55.1403 66.5473 55.0376 66.3665 55.0376 66.2399L55.6356 57.8914L63.3497 62.3339C63.5974 62.4785 63.7726 62.7197 63.827 62.9969C64.0686 64.1724 64.6787 67.1622 65.2284 69.5854C65.8687 72.4305 66.0379 73.8169 66.056 73.9676V76.1798L64.2679 75.1491L64.274 75.143Z" fill="#1E2329"/>
<path d="M54.6812 70.6824L55.69 71.2671C55.7746 71.3153 55.8471 71.4479 55.8471 71.5624V74.0278C55.8471 74.1423 55.7807 74.1966 55.69 74.1423L54.6812 73.5576C54.5967 73.5094 54.5242 73.3768 54.5242 73.2623V70.7969C54.5242 70.6824 54.5906 70.6281 54.6812 70.6824Z" fill="#3C4749"/>
<path d="M54.7055 72.2858L55.666 72.8404V73.7988C55.666 73.8531 55.6358 73.8772 55.5935 73.8531L54.7719 73.3829C54.7297 73.3588 54.6995 73.2985 54.6995 73.2443V72.2858H54.7055Z" fill="#222222"/>
<path d="M23.0274 65.3237L22.7677 62.9427L20.6836 57.5659L21.0098 57.4393L23.106 62.8825L23.3717 65.2876L23.0274 65.3237Z" fill="#292929"/>
<path d="M23.3719 65.2875L23.1061 62.9065L21.0281 57.5297L23.5592 55.9685L25.6553 61.4177L25.9211 63.8167L23.3719 65.2875Z" fill="#1D1D1D"/>
<path d="M0 14.075L48.1572 41.8211V73.841L0 46.1009V14.075Z" fill="#BEC3C7"/>
<path d="M47.094 42.4601V71.9724L1.06921 45.462V15.9497L1.78807 16.3596L2.2955 16.6489L47.094 42.4601Z" fill="#A5ABAF"/>
<path d="M47.088 48.4398V71.9724L1.06921 45.462L2.60358 44.582L15.3436 37.2401L29.0441 35.7331L47.088 48.4398Z" fill="#A5ABAF"/>
<path d="M47.0939 42.4602L47.0879 71.231L1.71545 45.0883V16.3174L47.0939 42.4602Z" fill="#BEC3C7"/>
<path d="M8.68066 56.3543L9.66531 56.9209V54.0155L8.68066 53.4489V56.3543Z" fill="#862929"/>
<path d="M50.8453 78.7175L51.8964 78.9948L52.6998 77.2829L54.5906 76.7103L59.085 79.3022C59.085 79.3022 60.8791 80.4596 62.2443 83.8774C62.6188 84.7996 62.8544 87.1445 62.8544 87.1445L63.3679 86.8491C63.3679 86.8491 63.4464 85.8244 62.9148 83.8292C62.3772 81.8339 60.3717 79.025 58.9279 77.8254C57.4842 76.6259 51.087 73.1237 51.087 73.1237L50.5735 73.4191L50.8453 78.7115V78.7175Z" fill="#535C5E"/>
<path d="M50.1506 79.1154L51.7273 80.0256L52.5307 78.3137L54.0772 76.9996L58.5715 79.5916C58.5715 79.5916 60.3656 80.7489 61.7308 84.1667C62.1054 85.089 62.5343 87.2047 62.5343 87.2047L62.8544 87.1445C62.8544 87.1445 62.933 86.1197 62.4014 84.1245C61.8637 82.1293 59.8582 79.3203 58.4144 78.1208C56.9707 76.9212 50.5735 73.4191 50.5735 73.4191L50.1506 76.8127V79.1154Z" fill="#3C4749"/>
<path d="M83.5563 50.1094L83.3086 50.2541L65.4399 60.5556L64.3465 61.1825L51.9871 54.0636L52.8811 53.1293L53.159 52.834L69.6262 43.3522L71.2089 43.0026L83.1455 49.8743L83.5563 50.1094Z" fill="#B30205"/>
<path d="M89.3133 71.454L85.0968 74.6728L83.5443 75.2274L75.0207 80.1401L71.064 81.9726L68.8712 82.7622V78.3137L89.3133 66.8065V68.9826V71.454Z" fill="#CFD3D6"/>
<path d="M89.2831 70.0134L87.1386 71.8217L73.0998 80.2004L69.6384 81.6531L68.847 81.6471L68.1523 81.5446V84.7032L68.847 84.8901L69.8196 84.8599L73.142 83.5097L73.1239 81.8581L73.142 83.5097L75.4194 82.4126L85.1209 76.6922L87.7004 74.6608L89.2831 73.184V70.0134Z" fill="#1E1E1E"/>
<path d="M69.6866 81.8158H68.847L68.2852 81.7194V84.5223L68.847 84.6489L69.8497 84.6007L69.6866 81.8158Z" fill="#F39737"/>
<path d="M88.9507 70.5257L86.8002 72.2858C86.7156 72.3521 86.6492 72.5148 86.6492 72.6414V73.2985C86.6492 73.4311 86.7156 73.4793 86.8002 73.413L88.9507 71.6529C89.0353 71.5866 89.1017 71.4238 89.1017 71.2972V70.6402C89.1017 70.5076 89.0353 70.4594 88.9507 70.5257Z" fill="#E5E6EA"/>
<path d="M88.9507 71.9543L86.8002 73.7144C86.7156 73.7807 86.6492 73.9435 86.6492 74.0701V74.7271C86.6492 74.8597 86.7156 74.908 86.8002 74.8416L88.9507 73.0815C89.0353 73.0152 89.1017 72.8525 89.1017 72.7259V72.0688C89.1017 71.9362 89.0353 71.888 88.9507 71.9543Z" fill="#E5E6EA"/>
<path d="M73.1239 80.544L70.3693 81.7737C70.2606 81.8219 70.176 81.9665 70.176 82.0931V82.7502C70.176 82.8828 70.2606 82.9491 70.3693 82.9009L73.1239 81.6712C73.2266 81.623 73.3172 81.4783 73.3172 81.3517V80.6947C73.3172 80.5621 73.2327 80.4957 73.1239 80.544Z" fill="#E5E6EA"/>
<path d="M73.1239 81.9665L70.3693 83.1962C70.2606 83.2444 70.176 83.3891 70.176 83.5157V84.1727C70.176 84.3053 70.2606 84.3716 70.3693 84.3234L73.1239 83.0937C73.2266 83.0455 73.3172 82.9008 73.3172 82.7743V82.1172C73.3172 81.9846 73.2327 81.9183 73.1239 81.9665Z" fill="#E5E6EA"/>
<path d="M69.1551 78.4704L68.7625 78.181L89.3132 66.3303V66.9572L87.8453 68.6088L84.4927 70.9898L74.5616 76.7103L71.2694 78.1569L69.1551 78.4704Z" fill="#DFE0EA"/>
<path d="M89.3131 66.3303L86.9934 68.2351L84.1119 70.3087L74.2836 75.9688L71.5108 77.1563L68.7381 78.2775L68.3696 77.6807L88.7634 64.8414L88.9929 65.7999L89.3131 66.3303Z" fill="#DFE0EA"/>
<path d="M68.3697 77.6807H67.7596L66.3219 77.1382L67.7596 78.0424L69.155 78.4703L68.3697 77.6807Z" fill="#CFD3D6"/>
<path d="M67.7777 86.2644L62.9209 83.4675V83.4313C62.9209 83.4313 62.7638 82.7923 61.8577 80.99C60.8187 78.9164 58.7588 77.0418 58.7406 77.0237L54.1376 74.3473C53.7449 74.1183 53.4429 73.5939 53.4429 73.1418L54.5785 57.0475C54.5785 56.8485 54.651 56.6918 54.7839 56.6195C54.9168 56.5411 55.092 56.5532 55.2732 56.6617L63.9599 61.6648C64.2136 61.8095 64.4492 62.0928 64.5821 62.4122C64.6908 62.6714 64.7452 62.9306 64.8358 63.3586C64.9143 63.7263 65.017 64.2326 65.2103 64.9741C65.899 67.6384 67.6085 75.1008 67.6569 75.3841C67.7112 75.6916 67.8502 77.3854 67.8562 77.4577L67.7837 86.2704L67.7777 86.2644ZM63.0659 83.3529L67.6085 85.969L67.681 77.4577C67.675 77.3673 67.536 75.6976 67.4877 75.4082C67.4394 75.1249 65.7359 67.6685 65.0412 65.0102C64.8479 64.2628 64.7392 63.7564 64.6667 63.3887C64.5761 62.9728 64.5277 62.7197 64.425 62.4725C64.3042 62.1892 64.0988 61.936 63.8753 61.8095L55.1887 56.8063C55.0678 56.734 54.9531 56.722 54.8745 56.7642C54.796 56.8124 54.7537 56.9088 54.7537 57.0535L53.6181 73.1478C53.6181 73.5276 53.8899 73.9977 54.2282 74.1967L58.8433 76.8851C58.8796 76.9152 60.9576 78.814 62.0148 80.9117C62.8182 82.5151 63.0296 83.1962 63.0719 83.359L63.0659 83.3529Z" fill="#A5ABAF"/>
<path d="M88.3224 66.5231L87.5915 67.3128L85.9363 68.6932L83.7375 70.3749L74.3863 75.7638L70.2 77.1382L68.6778 77.536L68.3093 76.9332L64.8116 61.7672L84.0274 50.7001L86.2504 56.0287L88.6003 64.1843L88.7634 64.8414V65.9324L88.3224 66.5231Z" fill="#DFE0EA"/>
<path d="M69.0281 75.2274L69.2274 75.9146L69.4872 76.445L70.1758 76.7946L74.3017 75.4203L83.6166 70.0676L85.7913 68.3918L87.519 66.9391L88.117 66.0771L88.2016 65.5467L87.9841 64.2869L69.0281 75.2274Z" fill="#1E1E1E"/>
<path d="M87.8936 64.3893L85.1813 67.4093L83.1999 68.9946L76.1322 72.991L72.8822 74.3714L69.0282 75.2274L68.5208 73.8349L69.9585 72.4847L73.2265 70.8512L77.4792 68.3195L78.4156 65.1187L83.5563 62.2675L87.7305 64.2688L87.8936 64.3893Z" fill="#5C5973"/>
<path d="M87.6156 62.8823L87.531 62.9728L84.8187 65.9987L82.8373 67.578L75.7696 71.5805L72.5196 72.9609L68.6656 73.8108L68.1582 72.4184L67.2762 69.2417L65.6392 62.6533L66.1466 61.9721L68.0796 61.297L71.5169 59.7117L77.3341 56.3723L79.4001 55.1788L82.0641 53.2559L83.6166 51.7851L83.9065 51.8333L86.4255 58.3735L87.6156 62.8823Z" fill="#1E1E1E"/>
<path d="M87.3258 62.81L86.7399 63.4671L85.9183 64.3833L84.6377 65.8059L82.6865 67.361L75.655 71.3454L72.4413 72.7138L68.8289 73.5094L68.406 72.34L67.5241 69.1694L65.9172 62.7075L66.3099 62.1892L68.1765 61.5381L71.6379 59.9468L77.4612 56.5953L77.5276 56.5592L79.5453 55.3958L82.2274 53.4548L83.3449 52.4L83.7255 52.0925L86.172 58.4519L87.3258 62.81Z" fill="#1E2329"/>
<path d="M86.7398 62.1831V63.467L85.9183 64.3833L84.5651 63.6057C84.2872 63.449 79.7023 58.6629 77.5276 56.5591L79.5392 55.3958L82.2273 53.4488L83.3449 52.3999L83.5986 52.189C84.2148 53.5754 85.3323 56.2517 85.9364 58.2831C86.8304 61.285 86.7398 62.1771 86.7398 62.1771V62.1831Z" fill="#313942"/>
<g style="mix-blend-mode:screen">
<path d="M71.5048 60.1277C70.0067 60.7425 68.3395 61.5442 68.3395 61.5442L66.3641 62.141L65.8809 62.7679L68.7865 73.5215L69.2093 74.8416L72.7432 74.1002L75.9207 72.762L75.8482 71.46L71.5048 60.1277Z" fill="#0B0E0F"/>
</g>
<path d="M87.9843 64.2868L87.8937 64.3893L85.1814 67.4092L83.2 68.9945L76.1383 72.991L72.8823 74.3714L69.0283 75.2273L68.5209 73.8349L67.5121 70.1941L67.2765 69.2417L68.1584 72.4184L68.6659 73.8108L72.5199 72.9609L75.7698 71.5805L82.8376 67.578L84.819 65.9987L87.5313 62.9727L87.6158 62.8823L87.9843 64.2868Z" fill="#1E1E1E"/>
<path d="M84.0275 50.6941L81.8165 52.2915L78.4518 54.5459L71.07 58.7955L68.6355 59.8866L64.8057 61.7673L64.3466 61.1826L65.4399 60.5557L83.3086 50.2541L83.5563 50.1094L84.0275 50.6941Z" fill="#EAEAEA"/>
<path d="M84.0274 50.6941L81.8165 52.2915L78.4518 54.5459L71.0699 58.7955L68.6355 59.8866L64.8056 61.7673L64.3465 61.1825L51.9871 54.0637L52.8811 53.1294L52.6697 53.7502L64.7271 60.7124L65.4399 60.5557L65.7903 60.4773L70.6833 58.3856L76.0536 55.2934L81.3091 51.9539L83.3086 50.2601V50.2541L83.1455 49.8743L83.5563 50.1094L84.0274 50.6941Z" fill="#DFE0EA"/>
<path d="M76.6818 58.0542L75.9327 58.4822C75.5159 58.7233 75.0991 58.9945 74.7004 59.2899C74.5675 59.3863 74.495 59.5853 74.5313 59.748L74.6219 60.182C74.6581 60.3448 74.791 60.4231 74.93 60.3689C75.3589 60.188 75.7817 59.9771 76.2046 59.7359L76.9536 59.308C77.3704 59.0669 77.7873 58.7956 78.1859 58.5002C78.3188 58.4038 78.3913 58.2049 78.3551 58.0421L78.2645 57.6081C78.2282 57.4454 78.0953 57.367 77.9564 57.4213C77.5275 57.6021 77.1047 57.8131 76.6818 58.0542Z" fill="#272E36"/>
<path d="M76.8509 58.6088C76.8448 58.3978 76.7965 57.8071 76.7965 57.8071L76.0535 57.8252C76.0535 57.8252 76.138 58.657 76.1441 58.6871C76.1864 58.8258 76.3676 58.9704 76.4461 58.9644C76.6273 58.9463 76.8629 58.8378 76.8509 58.6088Z" fill="#272E36"/>
<path d="M76.7301 57.6261C76.8449 57.7829 76.7966 57.9878 76.6274 58.0903C76.4583 58.1867 76.2227 58.1445 76.1139 57.9878C75.9992 57.8311 76.0475 57.6261 76.2166 57.5237C76.3858 57.4272 76.6214 57.4694 76.7301 57.6261Z" fill="#272E36"/>
<defs>
<linearGradient id="paint0_linear_243_5966" x1="62.9028" y1="88.1631" x2="56.9778" y2="77.8806" gradientUnits="userSpaceOnUse">
<stop stop-color="#181818"/>
<stop offset="0.27" stop-color="#262626"/>
<stop offset="0.77" stop-color="#2E2E2E"/>
</linearGradient>
<linearGradient id="paint1_linear_243_5966" x1="55.533" y1="87.9762" x2="59.7119" y2="80.729" gradientUnits="userSpaceOnUse">
<stop stop-color="#141414"/>
<stop offset="0.44" stop-color="#1E1E1E"/>
<stop offset="0.78" stop-color="#202020"/>
<stop offset="0.98" stop-color="#282828"/>
<stop offset="1" stop-color="#2A2A2A"/>
</linearGradient>
<linearGradient id="paint2_linear_243_5966" x1="55.539" y1="87.8616" x2="59.5553" y2="80.886" gradientUnits="userSpaceOnUse">
<stop stop-color="#161616"/>
<stop offset="0.3" stop-color="#1A1A1A"/>
<stop offset="0.79" stop-color="#1D1D1D"/>
<stop offset="0.8" stop-color="#1E1E1E"/>
</linearGradient>
<linearGradient id="paint3_linear_243_5966" x1="22.7133" y1="64.9499" x2="16.7882" y2="54.6675" gradientUnits="userSpaceOnUse">
<stop stop-color="#181818"/>
<stop offset="0.27" stop-color="#262626"/>
<stop offset="0.77" stop-color="#2E2E2E"/>
</linearGradient>
<linearGradient id="paint4_linear_243_5966" x1="15.3436" y1="64.7571" x2="19.5224" y2="57.5099" gradientUnits="userSpaceOnUse">
<stop stop-color="#141414"/>
<stop offset="0.44" stop-color="#1E1E1E"/>
<stop offset="0.78" stop-color="#202020"/>
<stop offset="0.98" stop-color="#282828"/>
<stop offset="1" stop-color="#2A2A2A"/>
</linearGradient>
<linearGradient id="paint5_linear_243_5966" x1="15.3496" y1="64.6427" x2="19.3658" y2="57.673" gradientUnits="userSpaceOnUse">
<stop stop-color="#161616"/>
<stop offset="0.3" stop-color="#1A1A1A"/>
<stop offset="0.79" stop-color="#1D1D1D"/>
<stop offset="0.8" stop-color="#1E1E1E"/>
</linearGradient>
</defs>
</svg>
